<?xml version="1.0" encoding="utf-8"?>
<!-- Generator: Adobe Illustrator 28.2.0, SVG Export Plug-In . SVG Version: 6.00 Build 0)  -->
<svg version="1.1" id="Layer_1" xmlns="http://www.w3.org/2000/svg" xmlns:xlink="http://www.w3.org/1999/xlink" x="0px" y="0px"
	 viewBox="140 80 300.46 230" style="enable-background:new 0 0 576 576;" xml:space="preserve">
<style type="text/css">
	.st0{fill:#100F21;}
	.st1{fill:#FFFFFF;}
	.st2{fill:#63C29D;}
</style>
<g>
	<g>
				<path class="st2" d="M353.36,305.11c-27.22,0-61.87-17.62-92.02-47.25c-1.35,3.75-2.93,7.43-4.73,11.02
			c-10.43,21.15-25.35,32.85-42.15,32.85c-16.8,0-31.88-11.4-42.45-32.1c-9.68-18.9-14.93-44.25-14.93-71.32
			c0-44.18,14.62-81.45,38.1-97.27c16.28-10.95,36.83-12.3,59.25-4.05c19.12,7.05,39.6,21.22,59.85,41.25
			c1.8-4.8,3.98-9.53,6.52-14.03c10.58-18.75,25.35-29.1,41.62-29.1c32.33,0,56.63,44.32,56.63,103.2c0,25.5-4.65,48.98-13.5,67.8
			c-4.35,9.22-9.52,17.02-15.45,23.18c-6.22,6.45-13.12,11.02-20.47,13.42C364.31,304.36,358.84,305.18,353.36,305.11L353.36,305.11
			z M265.54,244.2c37.95,39.75,78.68,53.63,100.12,46.5c11.02-3.67,21.15-14.32,28.5-30c8.02-17.17,12.3-38.7,12.3-62.4
			c0-25.05-4.8-48.3-13.57-65.48c-8.25-16.2-19.05-25.05-30.53-25.05c-16.35,0-30.68,16.42-38.25,40.72
			c30.6,33.6,50.62,74.93,48.9,101.32c-0.6,9.45-4.05,17.03-9.9,21.83l-0.52,0.38c-6.53,4.35-14.18,4.57-21.6,0.6
			c-19.43-10.43-35.25-48.22-35.25-84.3c-0.07-12.22,1.43-24.45,4.35-36.38c-41.32-42.97-81.53-58.12-107.85-40.42
			c-19.8,13.35-32.55,47.4-32.55,86.85c0,50.93,19.65,90.82,44.85,90.82c15.68,0,29.25-16.35,37.05-41.55
			c-20.25-22.5-35.55-47.7-43.12-71.1c-7.43-22.88-6.6-41.25,2.32-50.55c5.77-6,14.18-7.43,23.1-3.82
			c18.52,7.43,37.27,35.55,37.27,74.77C271.24,212.93,269.36,228.75,265.54,244.2L265.54,244.2z M320.51,163.36
			c-1.43,8.18-2.18,16.5-2.18,24.82c0,34.12,15.07,65.93,28.57,73.2c4.12,2.18,6.6,1.35,8.4,0.23c3-2.62,4.73-6.9,5.1-12.75
			C361.84,227.55,345.34,192.91,320.51,163.36L320.51,163.36z M224.51,132.83c-1.73-0.07-3.45,0.6-4.65,1.88
			c-4.05,4.2-6.3,16.65,0.6,37.95c6.3,19.5,18.52,40.5,34.8,60c2.25-11.78,3.38-23.7,3.3-35.7c0-37.35-18-58.57-29.4-63.15
			C227.66,133.2,226.09,132.91,224.51,132.83L224.51,132.83z M224.51,132.83"/>
	</g>
	</g>
</svg>
